<svg width="25" height="24" viewBox="0 0 25 24" fill="none" xmlns="http://www.w3.org/2000/svg">
<g clip-path="url(#clip0_1_319)">
<path d="M21.2273 0H3.77273C1.96525 0 0.5 1.46525 0.5 3.27273V20.7273C0.5 22.5347 1.96525 24 3.77273 24H21.2273C23.0347 24 24.5 22.5347 24.5 20.7273V3.27273C24.5 1.46525 23.0347 0 21.2273 0Z" fill="white"/>
<path d="M9.14545 6.54545C9.14545 6.95001 9.02548 7.34547 8.80072 7.68185C8.57597 8.01822 8.25651 8.28039 7.88275 8.43521C7.50899 8.59002 7.09772 8.63053 6.70094 8.55161C6.30416 8.47268 5.9397 8.27787 5.65364 7.99181C5.36757 7.70575 5.17276 7.34128 5.09384 6.9445C5.01491 6.54772 5.05542 6.13645 5.21024 5.76269C5.36505 5.38894 5.62722 5.06948 5.9636 4.84472C6.29997 4.61996 6.69544 4.5 7.09999 4.5C7.64248 4.5 8.16275 4.7155 8.54635 5.0991C8.92994 5.4827 9.14545 6.00297 9.14545 6.54545ZM8.68181 9.95455V18.9914C8.68217 19.058 8.66935 19.1241 8.64408 19.1858C8.61882 19.2475 8.58161 19.3036 8.5346 19.3509C8.48759 19.3981 8.43169 19.4356 8.37013 19.4612C8.30858 19.4868 8.24257 19.5 8.1759 19.5H6.01999C5.95332 19.5002 5.88728 19.4872 5.82565 19.4618C5.76403 19.4363 5.70803 19.399 5.66089 19.3518C5.61375 19.3047 5.57639 19.2487 5.55097 19.1871C5.52554 19.1254 5.51254 19.0594 5.51272 18.9927V9.95455C5.51272 9.82001 5.56616 9.69098 5.66129 9.59585C5.75643 9.50072 5.88545 9.44727 6.01999 9.44727H8.1759C8.3102 9.44763 8.43888 9.50124 8.53371 9.59633C8.62855 9.69142 8.68181 9.82024 8.68181 9.95455ZM19.9509 14.6591V19.0336C19.9511 19.0949 19.9391 19.1557 19.9158 19.2123C19.8924 19.269 19.858 19.3205 19.8147 19.3638C19.7714 19.4071 19.7199 19.4415 19.6632 19.4649C19.6066 19.4882 19.5458 19.5002 19.4845 19.5H17.1664C17.1051 19.5002 17.0443 19.4882 16.9877 19.4649C16.931 19.4415 16.8795 19.4071 16.8362 19.3638C16.7928 19.3205 16.7585 19.269 16.7351 19.2123C16.7118 19.1557 16.6998 19.0949 16.7 19.0336V14.7941C16.7 14.1614 16.8854 12.0232 15.0459 12.0232C13.6209 12.0232 13.3304 13.4864 13.2732 14.1436V19.0336C13.2732 19.1562 13.225 19.2738 13.139 19.361C13.053 19.4483 12.9361 19.4982 12.8136 19.5H10.5745C10.5134 19.5 10.4528 19.4879 10.3963 19.4645C10.3398 19.441 10.2884 19.4066 10.2452 19.3633C10.2021 19.32 10.1678 19.2686 10.1445 19.212C10.1213 19.1554 10.1094 19.0948 10.1095 19.0336V9.915C10.1094 9.85382 10.1213 9.79321 10.1445 9.73663C10.1678 9.68006 10.2021 9.62864 10.2452 9.58531C10.2884 9.54199 10.3398 9.50762 10.3963 9.48416C10.4528 9.46071 10.5134 9.44864 10.5745 9.44864H12.8136C12.9373 9.44864 13.0559 9.49777 13.1434 9.58523C13.2309 9.67269 13.28 9.79131 13.28 9.915V10.7032C13.8091 9.90955 14.5932 9.29727 16.2664 9.29727C19.9727 9.29727 19.9509 12.7582 19.9509 14.6591Z" fill="#090F1D"/>
</g>
<defs>
<clipPath id="clip0_1_319">
<rect width="24" height="24" fill="white" transform="translate(0.5)"/>
</clipPath>
</defs>
</svg>
