<svg width="25" height="24" viewBox="0 0 25 24" fill="none" xmlns="http://www.w3.org/2000/svg">
<g clip-path="url(#clip0_1_314)">
<path d="M21.2273 0H3.77273C1.96525 0 0.5 1.46525 0.5 3.27273V20.7273C0.5 22.5347 1.96525 24 3.77273 24H21.2273C23.0347 24 24.5 22.5347 24.5 20.7273V3.27273C24.5 1.46525 23.0347 0 21.2273 0Z" fill="white"/>
<path d="M19.9714 7.46047C19.6153 7.9923 19.1819 8.468 18.6854 8.87183C18.6211 8.92305 18.5691 8.98817 18.5334 9.06232C18.4978 9.13647 18.4793 9.21773 18.4795 9.30001V9.35047C18.4739 10.4221 18.2771 11.4842 17.8986 12.4868C17.5087 13.5377 16.9296 14.5083 16.19 15.3505C15.2006 16.4784 13.9261 17.3196 12.5 17.7859C11.5603 18.0909 10.5779 18.2437 9.58999 18.2386C8.02542 18.237 6.48905 17.8221 5.13636 17.0359C5.08792 17.0084 5.04983 16.9658 5.02791 16.9145C5.006 16.8633 5.00146 16.8063 5.01499 16.7523C5.02871 16.6988 5.05993 16.6515 5.10368 16.6179C5.14743 16.5843 5.20118 16.5663 5.25636 16.5668H5.62999C6.81921 16.5666 7.98123 16.211 8.96681 15.5455C8.3793 15.4494 7.82957 15.1935 7.37785 14.8058C6.92613 14.4181 6.58986 13.9135 6.4059 13.3473C6.39687 13.3194 6.39527 13.2896 6.40123 13.2609C6.4072 13.2321 6.42053 13.2055 6.43993 13.1835C6.45932 13.1615 6.48411 13.1449 6.51186 13.1353C6.5396 13.1258 6.56935 13.1237 6.59817 13.1291C6.77799 13.1633 6.96059 13.1806 7.14363 13.1809H7.21181C6.64237 12.9193 6.16094 12.4982 5.82576 11.9687C5.49058 11.4392 5.31601 10.8239 5.32317 10.1973C5.32356 10.1679 5.33155 10.1391 5.34636 10.1137C5.36116 10.0883 5.38229 10.0672 5.40768 10.0523C5.43307 10.0375 5.46186 10.0295 5.49126 10.0291C5.52065 10.0287 5.54966 10.0359 5.57545 10.05C5.80649 10.179 6.0543 10.2754 6.31181 10.3364C5.80188 9.83224 5.47368 9.17313 5.37867 8.46239C5.28366 7.75165 5.42721 7.02948 5.78681 6.4091C5.80061 6.38624 5.81962 6.36697 5.84229 6.35287C5.86497 6.33877 5.89066 6.33024 5.91726 6.32798C5.94387 6.32572 5.97063 6.32979 5.99536 6.33986C6.02009 6.34993 6.04208 6.36572 6.05954 6.38592C6.77372 7.26878 7.658 7.99916 8.65987 8.53371C9.66175 9.06826 10.7608 9.39609 11.8918 9.49774H11.9041C11.9208 9.49719 11.9373 9.49329 11.9525 9.48626C11.9678 9.47923 11.9814 9.46923 11.9927 9.45683C12.0036 9.44443 12.0117 9.4299 12.0167 9.41416C12.0216 9.39843 12.0232 9.38185 12.0214 9.36547C11.9791 8.96945 12.005 8.56913 12.0977 8.18183C12.179 7.84276 12.3173 7.51998 12.5068 7.22728C12.9044 6.60277 13.5102 6.13905 14.2168 5.91819C14.5483 5.81427 14.8935 5.76094 15.2409 5.76001C16.0287 5.75923 16.7895 6.04633 17.3804 6.56728C17.4557 6.63419 17.5525 6.67193 17.6532 6.67365C17.6863 6.6731 17.7193 6.66852 17.7514 6.66001C18.3069 6.51947 18.8392 6.29948 19.3318 6.00683C19.3615 5.9897 19.3956 5.9819 19.4298 5.98444C19.4639 5.98699 19.4965 5.99977 19.5233 6.02111C19.5501 6.04245 19.5698 6.07137 19.5799 6.10409C19.59 6.13681 19.5901 6.17182 19.58 6.20456C19.4147 6.72067 19.1221 7.18683 18.7291 7.56001C19.0835 7.47535 19.4295 7.3585 19.7627 7.21092C19.7963 7.19595 19.8339 7.19235 19.8697 7.20065C19.9055 7.20895 19.9377 7.2287 19.9613 7.25692C19.9849 7.28513 19.9986 7.32027 20.0004 7.357C20.0022 7.39373 19.992 7.43006 19.9714 7.46047Z" fill="#090F1D"/>
</g>
<defs>
<clipPath id="clip0_1_314">
<rect width="24" height="24" fill="white" transform="translate(0.5)"/>
</clipPath>
</defs>
</svg>
